{
  "accessors": [
    {
      "bufferView": 2,
      "componentType": 5126,
      "count": 3310,
      "max": [
        147.22080993652344,
        98.16087341308594,
        153.4397735595703
      ],
      "min": [
        -147.22080993652344,
        -89.42628479003906,
        -106.27268981933594
      ],
      "type": "VEC3"
    },
    {
      "bufferView": 2,
      "byteOffset": 39720,
      "componentType": 5126,
      "count": 3310,
      "max": [
        0.9996649026870728,
        0.9998793601989746,
        0.999913215637207
      ],
      "min": [
        -0.9996649026870728,
        -0.99854576587677,
        -0.9999926686286926
      ],
      "type": "VEC3"
    },
    {
      "bufferView": 1,
      "componentType": 5126,
      "count": 3310,
      "max": [
        0.9824709892272949,
        0.9900000095367432
      ],
      "min": [
        0.009999999776482582,
        0.009999999776482582
      ],
      "type": "VEC2"
    },
    {
      "bufferView": 0,
      "componentType": 5125,
      "count": 16668,
      "type": "SCALAR"
    }
  ],
  "asset": {
    "extras": {
      "author": "Frybrix (https://sketchfab.com/Frybrix)",
      "license": "CC-BY-4.0 (http://creativecommons.org/licenses/by/4.0/)",
      "source": "https://sketchfab.com/3d-models/fat-flame-e4b51e607d0d483a83c5a72581c5cfa2",
      "title": "fat flame"
    },
    "generator": "Sketchfab-12.67.0",
    "version": "2.0"
  },
  "bufferViews": [
    {
      "buffer": 0,
      "byteLength": 66672,
      "name": "floatBufferViews",
      "target": 34963
    },
    {
      "buffer": 0,
      "byteLength": 26480,
      "byteOffset": 66672,
      "byteStride": 8,
      "name": "floatBufferViews",
      "target": 34962
    },
    {
      "buffer": 0,
      "byteLength": 79440,
      "byteOffset": 93152,
      "byteStride": 12,
      "name": "floatBufferViews",
      "target": 34962
    }
  ],
  "buffers": [
    {
      "byteLength": 172592,
      "uri": "scene.bin"
    }
  ],
  "extensionsUsed": [
    "KHR_materials_unlit"
  ],
  "images": [
    {
      "uri": "textures/Base_baseColor.png"
    }
  ],
  "materials": [
    {
      "doubleSided": true,
      "emissiveFactor": [
        0.32202743902439024,
        0.32202743902439024,
        0.32202743902439024
      ],
      "emissiveTexture": {
        "index": 0
      },
      "extensions": {
        "KHR_materials_unlit": {}
      },
      "name": "Base",
      "pbrMetallicRoughness": {
        "baseColorTexture": {
          "index": 0
        },
        "metallicFactor": 0.0
      }
    }
  ],
  "meshes": [
    {
      "name": "Object_0",
      "primitives": [
        {
          "attributes": {
            "NORMAL": 1,
            "POSITION": 0,
            "TEXCOORD_0": 2
          },
          "indices": 3,
          "material": 0,
          "mode": 4
        }
      ]
    }
  ],
  "nodes": [
    {
      "children": [
        1
      ],
      "matrix": [
        0.0169569980353117,
        0.0,
        0.0,
        0.0,
        0.0,
        3.765209929465318e-18,
        -0.0169569980353117,
        0.0,
        0.0,
        0.0169569980353117,
        3.765209929465318e-18,
        0.0,
        0.0,
        0.0,
        0.0,
        1.0
      ],
      "name": "Sketchfab_model"
    },
    {
      "children": [
        2
      ],
      "name": "boss.obj.cleaner.materialmerger.gles"
    },
    {
      "mesh": 0,
      "name": "Object_2"
    }
  ],
  "samplers": [
    {
      "magFilter": 9729,
      "minFilter": 9987,
      "wrapS": 10497,
      "wrapT": 10497
    }
  ],
  "scene": 0,
  "scenes": [
    {
      "name": "Sketchfab_Scene",
      "nodes": [
        0
      ]
    }
  ],
  "textures": [
    {
      "sampler": 0,
      "source": 0
    }
  ]
}
